<svg width="100" height="100" viewBox="0 0 100 100" fill="none" xmlns="http://www.w3.org/2000/svg">
<path d="M21.2049 31.7983V60.9746C21.2049 62.4902 22.0028 63.8796 23.3047 64.6374L48.5026 79.2045C49.8045 79.9624 51.4004 79.9624 52.7022 79.2045L77.9001 64.6374C79.2021 63.8796 80 62.4902 80 60.9746V31.7983C80 30.2826 79.2021 28.8932 77.9001 28.1355L52.7022 13.5684C51.4004 12.8105 49.8045 12.8105 48.5026 13.5684L23.3047 28.1776C22.0028 28.9354 21.2049 30.3247 21.2049 31.7983Z" fill="#0F2B46"/>
<path d="M61.1015 86.4889L61.0596 80.1736L61.1015 74.3636L46.4028 77.9843" fill="#0F2B46"/>
<path d="M60.4294 73.8583L63.2012 73.1425L62.1512 73.7319C61.5213 74.1108 61.1013 74.7844 61.1013 75.5423V76.7212L60.4294 73.8583Z" fill="#142C46"/>
<path d="M40.4377 33.1045C42.1175 31.4626 44.8053 31.4626 46.4852 33.1045C48.291 34.8307 48.291 37.6936 46.4852 39.4197C44.8053 41.0617 42.1175 41.0617 40.4377 39.4197C38.6318 37.6936 38.6318 34.8307 40.4377 33.1045Z" fill="white"/>
<path d="M59.3361 44.0926C61.016 42.4506 63.7038 42.4506 65.3836 44.0926C67.1895 45.8188 67.1895 48.6816 65.3836 50.4078C63.7038 52.0498 61.016 52.0498 59.3361 50.4078C57.5303 48.6816 57.5303 45.8188 59.3361 44.0926Z" fill="white"/>
<path d="M40.4377 55.713C42.1175 54.0711 44.8053 54.0711 46.4852 55.713C48.291 57.4392 48.291 60.3021 46.4852 62.0283C44.8053 63.6702 42.1175 63.6702 40.4377 62.0283C38.6318 60.3021 38.6318 57.4392 40.4377 55.713Z" fill="white"/>
<path d="M45.562 38.6191L58.1609 45.9027L60.2608 44.7238L47.6618 37.3981L45.562 38.6191Z" fill="white"/>
<path d="M59.0009 51.2495L47.6618 57.8173L45.562 56.5964L56.9011 50.0706L59.0009 51.2495Z" fill="white"/>
</svg>
