<svg width="100" height="100" viewBox="0 0 100 100" fill="none" xmlns="http://www.w3.org/2000/svg">
<path d="M26.1091 16.8315C20.3441 20.7011 19.5733 28.6494 24.5277 33.7842L26.5735 35.9044L23.133 39.2205C19.6091 42.6169 18.5173 45.0587 18.7637 49.2175C19.0101 53.3764 22.5308 57.8025 29.7144 62.9619C40.7072 70.857 41.3569 71.532 41.4308 74.2029C41.4927 76.4449 39.6924 78.8357 37.9902 79.8228C34.2374 81.999 29.0074 79.9229 29.9936 75.3083C30.6812 72.091 29.0637 69.7802 26.1813 69.7802C22.276 69.7802 20.5928 74.0228 22.8334 78.1641C25.4279 82.9599 37.6177 84.4294 43.3826 80.5597C49.1475 76.69 49.92 68.7401 44.9639 63.607L42.9181 61.4881L46.3586 58.1707C49.5481 55.0954 50.6577 52.7257 50.8496 48.6983C51.0416 44.671 47.4915 39.9686 39.7772 34.4293C28.7835 26.5353 28.1127 25.861 28.0608 23.1896C28.017 20.9309 29.4904 18.7033 31.5014 17.5697C35.1329 15.5227 40.4841 17.4697 39.4979 22.0842C38.8104 25.3015 40.4279 27.6123 43.3103 27.6123C47.2156 27.6123 48.8954 23.3694 46.6569 19.2271C45.0367 16.229 39.6618 14.5344 35.498 14.6078C31.3341 14.6812 28.2709 15.3803 26.1091 16.8315ZM28.6193 37.5618L34.5701 41.9845C37.8133 44.3949 41.3135 47.1944 42.1948 48.2495C44.5663 51.0886 44.7678 55.1119 42.5462 57.8022L40.8723 59.8294L34.9215 55.4066C31.6783 52.9962 28.1809 50.1945 27.2967 49.1416C24.5634 45.8867 24.9089 42.055 26.9453 39.5889L28.6193 37.5618Z" fill="black"/>
<g clip-path="url(#clip0_9_44)">
<rect width="9" height="73" transform="translate(72 12)" fill="white"/>
<path d="M81 12H72V85H81V12Z" fill="black"/>
<path d="M81 36.3333H72V85H81V36.3333Z" fill="#DD0000"/>
<path d="M81 60.6667H72V85H81V60.6667Z" fill="#FFCE00"/>
</g>
<defs>
<clipPath id="clip0_9_44">
<rect width="9" height="73" fill="white" transform="translate(72 12)"/>
</clipPath>
</defs>
</svg>
