<svg width="100" height="100" viewBox="0 0 100 100" fill="none" xmlns="http://www.w3.org/2000/svg">
<path fill-rule="evenodd" clip-rule="evenodd" d="M50 15C30.6625 15 15 30.6625 15 50C15 65.4875 25.0187 78.5687 38.9312 83.2062C40.6812 83.5125 41.3375 82.4625 41.3375 81.5437C41.3375 80.7125 41.2938 77.9562 41.2938 75.025C32.5 76.6437 30.225 72.8812 29.525 70.9125C29.1312 69.9062 27.425 66.8 25.9375 65.9687C24.7125 65.3125 22.9625 63.6937 25.8938 63.65C28.65 63.6062 30.6188 66.1875 31.275 67.2375C34.425 72.5312 39.4563 71.0437 41.4688 70.125C41.775 67.85 42.6937 66.3187 43.7 65.4437C35.9125 64.5687 27.775 61.55 27.775 48.1625C27.775 44.3562 29.1313 41.2062 31.3625 38.7562C31.0125 37.8812 29.7875 34.2937 31.7125 29.4812C31.7125 29.4812 34.6438 28.5625 41.3375 33.0687C44.1375 32.2812 47.1125 31.8875 50.0875 31.8875C53.0625 31.8875 56.0375 32.2812 58.8375 33.0687C65.5313 28.5187 68.4625 29.4812 68.4625 29.4812C70.3875 34.2937 69.1625 37.8812 68.8125 38.7562C71.0438 41.2062 72.4 44.3125 72.4 48.1625C72.4 61.5937 64.2188 64.5687 56.4313 65.4437C57.7 66.5375 58.7938 68.6375 58.7938 71.9187C58.7938 76.6 58.75 80.3625 58.75 81.5437C58.75 82.4625 59.4063 83.5562 61.1563 83.2062C74.9813 78.5687 85 65.4437 85 50C85 30.6625 69.3375 15 50 15Z" fill="#1B1F23"/>
</svg>
